<svg xmlns="http://www.w3.org/2000/svg" xmlns:xlink="http://www.w3.org/1999/xlink" width="1080" zoomAndPan="magnify" viewBox="0 0 810 809.999993" height="1080" preserveAspectRatio="xMidYMid meet" version="1.0"><defs><clipPath id="456f832933"><path d="M 72.480469 443 L 364 443 L 364 641 L 72.480469 641 Z M 72.480469 443 " clip-rule="nonzero"/></clipPath><clipPath id="876734cda7"><path d="M 446 443 L 737.730469 443 L 737.730469 641 L 446 641 Z M 446 443 " clip-rule="nonzero"/></clipPath><clipPath id="3087233f1b"><path d="M 72.480469 443 L 364 443 L 364 641 L 72.480469 641 Z M 72.480469 443 " clip-rule="nonzero"/></clipPath><clipPath id="e0fd87ec60"><path d="M 446 443 L 737.730469 443 L 737.730469 641 L 446 641 Z M 446 443 " clip-rule="nonzero"/></clipPath></defs><path fill="#3194ce" d="M 661.703125 508.414062 L 593.277344 469.476562 C 593.277344 462.832031 593.277344 458.082031 593.277344 454.285156 C 593.277344 446.6875 593.277344 444.785156 589.476562 444.785156 C 584.722656 444.785156 581.871094 444.785156 579.019531 444.785156 C 573.320312 444.785156 572.367188 445.734375 572.367188 450.484375 C 572.367188 452.382812 572.367188 454.285156 572.367188 458.082031 L 523.898438 430.542969 C 523.898438 422.945312 523.898438 417.246094 523.898438 412.496094 C 523.898438 404.902344 522.949219 403 520.097656 403 C 516.296875 403 512.496094 403 510.59375 403 C 505.84375 403 503.941406 403.949219 503.941406 406.800781 C 503.941406 411.546875 503.941406 414.398438 503.941406 415.347656 C 503.941406 417.246094 503.941406 418.195312 502.992188 418.195312 C 502.992188 418.195312 502.042969 418.195312 502.042969 418.195312 C 493.488281 413.449219 502.042969 418.195312 446.921875 386.855469 C 445.972656 324.179688 445.972656 306.136719 439.320312 288.09375 C 431.714844 269.097656 414.609375 257.703125 406.054688 257.703125 C 359.488281 267.199219 365.191406 331.777344 364.238281 386.855469 C 312.921875 416.296875 309.121094 418.195312 308.167969 418.195312 C 308.167969 418.195312 308.167969 418.195312 307.21875 418.195312 C 307.21875 415.347656 307.21875 412.496094 307.21875 410.597656 C 307.21875 404.902344 307.21875 403.949219 303.417969 403.949219 C 298.664062 403.949219 295.816406 403.949219 292.964844 403.949219 C 287.261719 403.949219 286.3125 404.902344 286.3125 412.496094 C 286.3125 416.296875 286.3125 422.945312 286.3125 431.492188 L 237.84375 459.03125 C 237.84375 456.183594 237.84375 454.285156 237.84375 452.382812 C 237.84375 447.636719 237.84375 445.734375 234.042969 445.734375 C 229.289062 445.734375 226.4375 445.734375 223.585938 445.734375 C 217.886719 445.734375 216.933594 446.6875 216.933594 453.332031 C 216.933594 457.132812 216.933594 461.878906 216.933594 469.476562 L 148.507812 508.414062 L 343.332031 169.382812 L 465.929688 169.382812 Z M 661.703125 508.414062 " fill-opacity="1" fill-rule="nonzero"/><g clip-path="url(#456f832933)"><path fill="#3194ce" d="M 138.054688 526.457031 C 140.90625 526.457031 362.339844 444.785156 363.289062 443.835938 C 259.699219 501.765625 220.734375 576.789062 183.671875 640.417969 L 72.480469 640.417969 Z M 138.054688 526.457031 " fill-opacity="1" fill-rule="nonzero"/></g><g clip-path="url(#876734cda7)"><path fill="#3194ce" d="M 737.730469 640.417969 L 625.589844 640.417969 L 598.976562 593.882812 C 538.15625 487.519531 446.921875 444.785156 446.921875 443.835938 C 446.921875 443.835938 669.304688 526.457031 672.15625 526.457031 Z M 737.730469 640.417969 " fill-opacity="1" fill-rule="nonzero"/></g><path fill="#3194ce" d="M 661.703125 508.414062 L 593.277344 469.476562 C 593.277344 462.832031 593.277344 458.082031 593.277344 454.285156 C 593.277344 446.6875 593.277344 444.785156 589.476562 444.785156 C 584.722656 444.785156 581.871094 444.785156 579.019531 444.785156 C 573.320312 444.785156 572.367188 445.734375 572.367188 450.484375 C 572.367188 452.382812 572.367188 454.285156 572.367188 458.082031 L 523.898438 430.542969 C 523.898438 422.945312 523.898438 417.246094 523.898438 412.496094 C 523.898438 404.902344 522.949219 403 520.097656 403 C 516.296875 403 512.496094 403 510.59375 403 C 505.84375 403 503.941406 403.949219 503.941406 406.800781 C 503.941406 411.546875 503.941406 414.398438 503.941406 415.347656 C 503.941406 417.246094 503.941406 418.195312 502.992188 418.195312 C 502.992188 418.195312 502.042969 418.195312 502.042969 418.195312 C 493.488281 413.449219 502.042969 418.195312 446.921875 386.855469 C 445.972656 324.179688 445.972656 306.136719 439.320312 288.09375 C 431.714844 269.097656 414.609375 257.703125 406.054688 257.703125 C 359.488281 267.199219 365.191406 331.777344 364.238281 386.855469 C 312.921875 416.296875 309.121094 418.195312 308.167969 418.195312 C 308.167969 418.195312 308.167969 418.195312 307.21875 418.195312 C 307.21875 415.347656 307.21875 412.496094 307.21875 410.597656 C 307.21875 404.902344 307.21875 403.949219 303.417969 403.949219 C 298.664062 403.949219 295.816406 403.949219 292.964844 403.949219 C 287.261719 403.949219 286.3125 404.902344 286.3125 412.496094 C 286.3125 416.296875 286.3125 422.945312 286.3125 431.492188 L 237.84375 459.03125 C 237.84375 456.183594 237.84375 454.285156 237.84375 452.382812 C 237.84375 447.636719 237.84375 445.734375 234.042969 445.734375 C 229.289062 445.734375 226.4375 445.734375 223.585938 445.734375 C 217.886719 445.734375 216.933594 446.6875 216.933594 453.332031 C 216.933594 457.132812 216.933594 461.878906 216.933594 469.476562 L 148.507812 508.414062 L 343.332031 169.382812 L 465.929688 169.382812 Z M 661.703125 508.414062 " fill-opacity="1" fill-rule="nonzero"/><g clip-path="url(#3087233f1b)"><path fill="#3194ce" d="M 138.054688 526.457031 C 140.90625 526.457031 362.339844 444.785156 363.289062 443.835938 C 259.699219 501.765625 220.734375 576.789062 183.671875 640.417969 L 72.480469 640.417969 Z M 138.054688 526.457031 " fill-opacity="1" fill-rule="nonzero"/></g><g clip-path="url(#e0fd87ec60)"><path fill="#3194ce" d="M 737.730469 640.417969 L 625.589844 640.417969 L 598.976562 593.882812 C 538.15625 487.519531 446.921875 444.785156 446.921875 443.835938 C 446.921875 443.835938 669.304688 526.457031 672.15625 526.457031 Z M 737.730469 640.417969 " fill-opacity="1" fill-rule="nonzero"/></g></svg>